<svg width="35" height="35" viewBox="0 0 35 35" fill="none" xmlns="http://www.w3.org/2000/svg">
<path d="M11.6667 8.75002H5.375C4.82272 8.75002 4.375 9.19774 4.375 9.75002V29.625C4.375 30.1773 4.82272 30.625 5.375 30.625H29.625C30.1773 30.625 30.625 30.1773 30.625 29.625V9.75002C30.625 9.19774 30.1773 8.75002 29.625 8.75002H23.3333M11.6667 8.75002L16.7929 3.62379C17.1834 3.23327 17.8166 3.23327 18.2071 3.62379L23.3333 8.75002M11.6667 8.75002H23.3333" stroke="#898989" stroke-width="1.2"/>
<path d="M7.2915 24.7916L15.4582 14.5833L20.4165 21.0795L22.604 18.2954L27.7082 24.7916H17.4998H7.2915Z" stroke="#898989" stroke-width="1.2"/>
</svg>
