<svg width="22" height="17" viewBox="0 0 22 17" fill="none" xmlns="http://www.w3.org/2000/svg">
<path fill-rule="evenodd" clip-rule="evenodd" d="M19.5413 0.456254C13.7498 2.56892 8.00228 4.74989 2.22927 6.88077C1.76595 7.07428 1.17753 7.15168 0.869419 7.59561C0.81142 7.70952 0.780164 7.83476 0.777958 7.96212C0.775751 8.08947 0.80265 8.21569 0.856669 8.33147C0.910687 8.44725 0.990451 8.54965 1.09008 8.63112C1.18972 8.71259 1.30668 8.77105 1.43236 8.8022C2.62078 9.21881 3.81384 9.62632 5.00921 10.0156C5.31134 10.1231 5.63487 10.1595 5.95389 10.1219C6.27291 10.0843 6.57854 9.97387 6.84629 9.79934C9.73511 8.02133 12.5892 6.19096 15.4826 4.42888C15.5335 4.36867 15.603 4.32641 15.6806 4.30852C15.7581 4.29064 15.8395 4.29809 15.9123 4.32976C15.9851 4.36143 16.0455 4.41559 16.0842 4.48401C16.1229 4.55244 16.1378 4.6314 16.1267 4.70891C13.9189 6.93313 11.5745 9.03441 9.36445 11.245C9.03781 11.5728 9.28568 11.9143 9.47796 12.0645C11.3313 13.5033 13.305 14.7964 15.2 16.1783C15.7166 16.497 16.217 17.0411 16.8842 16.9296C17.1741 16.892 17.4438 16.7629 17.6527 16.5617C17.8616 16.3605 17.9984 16.0982 18.0425 15.8141C19.0911 11.1304 20.139 6.4467 21.1861 1.76301C21.4317 0.884249 20.3753 0.00321392 19.5413 0.456254Z" fill="white"/>
</svg>
