<svg width="24" height="24" viewBox="0 0 24 24" fill="none" xmlns="http://www.w3.org/2000/svg">
<path d="M20.5503 2.77029C19.9703 2.23922 17.6329 0.54117 12.427 0.516712C12.427 0.516712 6.28463 0.146356 3.29034 2.89258C1.62374 4.55918 1.03676 6.99794 0.977364 10.0237C0.914473 13.0494 0.834113 18.7131 6.29861 20.2504H6.3021L6.29861 22.5948C6.29861 22.5948 6.26367 23.5452 6.88908 23.7373C7.64377 23.9714 8.0875 23.2517 8.81074 22.4725C9.20555 22.0463 9.7541 21.4174 10.1664 20.9387C13.9014 21.2531 16.7769 20.5334 17.1018 20.4286C17.8565 20.184 22.1261 19.6355 22.8179 13.9718C23.5341 8.13347 22.4685 4.43689 20.5503 2.77029ZM21.1827 13.5525C20.5957 18.2833 17.1333 18.5838 16.4974 18.7864C16.2248 18.8738 13.7022 19.5027 10.5298 19.2931C10.5298 19.2931 8.16437 22.1441 7.42715 22.8883C7.31185 23.0036 7.17558 23.0525 7.08474 23.0281C6.95896 22.9966 6.92402 22.8464 6.92402 22.6263C6.92752 22.3118 6.94499 18.7305 6.94499 18.7305C6.94149 18.7305 6.94149 18.7305 6.94499 18.7305C2.32602 17.4483 2.59505 12.6232 2.64746 10.0971C2.69987 7.57094 3.17504 5.50254 4.58309 4.11196C7.11619 1.81995 12.3326 2.16235 12.3326 2.16235C16.7385 2.18331 18.8488 3.50751 19.3379 3.95124C20.9591 5.34531 21.7872 8.67502 21.1827 13.5525Z" fill="white"/>
<path d="M14.5686 9.89437C14.5127 8.73788 13.9257 8.13343 12.8076 8.07404" stroke="white" stroke-width="0.5" stroke-linecap="round" stroke-linejoin="round"/>
<path d="M16.078 10.4012C16.1024 9.32508 15.7845 8.42714 15.1206 7.70389C14.4568 6.98065 13.5379 6.57885 12.3569 6.495" stroke="white" stroke-width="0.5" stroke-linecap="round" stroke-linejoin="round"/>
<path d="M17.6258 11.0055C17.6118 9.13622 17.0528 7.66878 15.9522 6.59265C14.8516 5.52001 13.4785 4.97496 11.8398 4.96448" stroke="white" stroke-width="0.5" stroke-linecap="round" stroke-linejoin="round"/>
<path d="M12.8673 13.8393C12.8673 13.8393 13.2831 13.8742 13.5032 13.5982L13.9365 13.0532C14.1461 12.7806 14.6527 12.6094 15.1488 12.8854C15.4249 13.0427 15.921 13.3466 16.2285 13.5737C16.5569 13.8148 17.2312 14.3774 17.2312 14.3774C17.5527 14.6464 17.626 15.0447 17.4094 15.464C17.4094 15.4675 17.4059 15.4709 17.4059 15.4709C17.1823 15.8658 16.8818 16.2396 16.501 16.5855C16.4975 16.589 16.4975 16.589 16.494 16.5925C16.183 16.851 15.8756 17.0013 15.5751 17.0362C15.5402 17.0432 15.4947 17.0467 15.4423 17.0432C15.3096 17.0432 15.1803 17.0257 15.051 16.9838L15.0405 16.9698C14.5758 16.8406 13.8037 16.5121 12.5144 15.8029C11.6759 15.3417 10.9806 14.87 10.3936 14.4018C10.0827 14.1572 9.76471 13.8777 9.43977 13.5563C9.42929 13.5458 9.41881 13.5353 9.40833 13.5248C9.39784 13.5144 9.38736 13.5039 9.37688 13.4934C9.3664 13.4829 9.35592 13.4724 9.34544 13.4619C9.33495 13.4515 9.32447 13.441 9.31399 13.4305C8.99255 13.1056 8.71304 12.7876 8.46846 12.4767C8.00027 11.8897 7.52859 11.1909 7.0674 10.3558C6.35813 9.06659 6.0297 8.29443 5.90043 7.82974L5.88645 7.81926C5.84452 7.68998 5.82356 7.56071 5.82705 7.42794C5.82356 7.37553 5.82705 7.33011 5.83404 7.29517C5.86898 6.99469 6.01922 6.68723 6.27777 6.37627C6.28127 6.37277 6.28126 6.37277 6.28476 6.36928C6.63066 5.98844 7.00101 5.68796 7.39932 5.46435C7.40281 5.46435 7.40631 5.46086 7.40631 5.46086C7.82558 5.24424 8.22389 5.31761 8.49292 5.63905C8.49641 5.64254 9.05544 6.31338 9.29652 6.6418C9.52363 6.95276 9.83109 7.44541 9.98482 7.72143C10.2608 8.21756 10.0896 8.72418 9.81712 8.93382L9.27206 9.36707C8.99604 9.59068 9.03098 10.003 9.03098 10.003C9.03098 10.003 9.84157 13.0671 12.8673 13.8393Z" fill="white"/>
</svg>
