<svg width="24" height="24" viewBox="0 0 24 24" fill="none" xmlns="http://www.w3.org/2000/svg">
<path fill-rule="evenodd" clip-rule="evenodd" d="M12.3249 0.194321C10.3007 0.194667 8.3129 0.732599 6.56475 1.75311C4.8166 2.77362 3.37083 4.2401 2.37529 6.00259C1.37975 7.76508 0.870142 9.76034 0.898586 11.7844C0.927031 13.8084 1.4925 15.7885 2.53718 17.5224L0.474609 23.6518L6.80126 21.6261C8.32779 22.4691 10.027 22.9515 11.7688 23.0365C13.5105 23.1216 15.2486 22.8069 16.85 22.1166C18.4514 21.4262 19.8735 20.3786 21.0076 19.0539C22.1417 17.7292 22.9575 16.1625 23.3927 14.4739C23.8279 12.7852 23.8709 11.0194 23.5184 9.31154C23.1659 7.6037 22.4273 5.99919 21.359 4.62086C20.2908 3.24252 18.9213 2.12693 17.3554 1.3595C15.7895 0.592063 14.0688 0.193147 12.3249 0.193298V0.194321ZM12.3249 21.2287C10.4451 21.2307 8.6065 20.6781 7.03929 19.6401L3.34729 20.8221L4.54765 17.2537C3.28394 15.5065 2.64503 13.3849 2.73379 11.2305C2.82256 9.07607 3.63383 7.0142 5.03697 5.37694C6.44012 3.73967 8.35347 2.62229 10.4689 2.20472C12.5844 1.78716 14.7788 2.09373 16.6988 3.07505C18.6188 4.05637 20.1527 5.65533 21.0534 7.61446C21.9541 9.57358 22.1693 11.7788 21.6642 13.8751C21.1591 15.9714 19.9633 17.8367 18.2691 19.1706C16.575 20.5045 14.4812 21.2295 12.3249 21.2287Z" fill="white"/>
<path fill-rule="evenodd" clip-rule="evenodd" d="M9.64565 6.89524C9.46074 6.44881 9.31874 6.43349 9.0327 6.4202C8.93054 6.4151 8.82838 6.41101 8.71192 6.41101C8.34313 6.41101 7.96106 6.5193 7.7312 6.75528C7.45129 7.04132 6.75049 7.7125 6.75049 9.09061C6.75049 10.4687 7.7547 11.8009 7.89466 11.9878C8.03461 12.1748 9.85201 15.0444 12.6797 16.2161C14.8874 17.1356 15.5402 17.0487 16.0458 16.9384C16.7783 16.779 17.6988 16.2396 17.9317 15.5858C18.1646 14.932 18.1656 14.3701 18.0951 14.2578C18.0246 14.1454 17.8387 14.0718 17.5588 13.9309C17.2789 13.7899 15.9008 13.1136 15.6444 13.0196C15.5241 12.9628 15.3872 12.9522 15.2596 12.9899C15.132 13.0276 15.0228 13.1109 14.9528 13.2239C14.7202 13.5689 14.4692 13.901 14.2009 14.2189C14.1114 14.3033 13.9983 14.3584 13.8767 14.3766C13.7551 14.3949 13.6308 14.3755 13.5205 14.3211C12.6891 14.0029 11.925 13.5313 11.2679 12.9307C10.655 12.3645 10.1296 11.7104 9.70898 10.9897C9.54553 10.7098 9.69468 10.5423 9.82034 10.3901C9.96438 10.2164 10.0972 10.0918 10.2371 9.92831C10.3595 9.79744 10.4627 9.64988 10.5436 9.49005C10.5785 9.40639 10.5931 9.31565 10.5861 9.22527C10.5792 9.1349 10.551 9.04744 10.5038 8.97007C10.4374 8.8342 9.87755 7.46017 9.64565 6.89524Z" fill="white"/>
</svg>
